<?xml version="1.0" encoding="UTF-8" standalone="no"?>
<!-- Created with Inkscape (http://www.inkscape.org/) -->

<svg
   width="3000"
   height="1200"
   viewBox="0 0 793.74998 317.50001"
   version="1.1"
   id="svg1"
   inkscape:export-filename="ground.svg"
   inkscape:export-xdpi="96"
   inkscape:export-ydpi="96"
   inkscape:version="1.4 (e7c3feb100, 2024-10-09)"
   sodipodi:docname="ground.svg"
   xmlns:inkscape="http://www.inkscape.org/namespaces/inkscape"
   xmlns:sodipodi="http://sodipodi.sourceforge.net/DTD/sodipodi-0.dtd"
   xmlns="http://www.w3.org/2000/svg"
   xmlns:svg="http://www.w3.org/2000/svg">
  <sodipodi:namedview
     id="namedview1"
     pagecolor="#ffffff"
     bordercolor="#000000"
     borderopacity="0.25"
     inkscape:showpageshadow="2"
     inkscape:pageopacity="0.0"
     inkscape:pagecheckerboard="true"
     inkscape:deskcolor="#d1d1d1"
     inkscape:document-units="mm"
     inkscape:zoom="0.16284474"
     inkscape:cx="890.41869"
     inkscape:cy="64.478595"
     inkscape:window-width="1918"
     inkscape:window-height="1078"
     inkscape:window-x="0"
     inkscape:window-y="0"
     inkscape:window-maximized="1"
     inkscape:current-layer="layer1">
    <inkscape:page
       x="0"
       y="0"
       width="793.75"
       height="317.5"
       id="page2"
       margin="0"
       bleed="0" />
  </sodipodi:namedview>
  <defs
     id="defs1" />
  <g
     inkscape:label="Lager 1"
     inkscape:groupmode="layer"
     id="layer1">
    <path
       style="fill:#5aa02c;stroke:#000000;stroke-width:1.74835;paint-order:markers stroke fill"
       d="m 553.10007,280.81303 c 0,0 -1.25912,-7.50698 -2.03346,-11.05461 -0.89957,-4.12143 -5.70297,-10.7994 -5.70297,-10.7994 0,0 7.20093,6.93322 9.88297,9.99605 2.68204,3.06284 6.17994,17.13006 6.17994,17.13006 l -4.89117,-22.90003 c 0,0 7.92899,4.74908 7.30131,13.59862 -0.26573,3.74649 2.24268,6.28466 2.24268,6.28466 0,0 -2.71545,-14.38523 0.0921,-17.09657 2.8076,-2.71133 7.77005,-3.83266 7.77005,-3.83266 0,0 -4.0294,7.46455 -1.67792,12.62784 2.35148,5.1633 7.53566,7.91651 7.53566,7.91651 1.40621,1.58199 -3.45543,-11.4561 -6.28455,-14.13838 -2.61448,-2.47876 6.46034,4.71979 7.51474,7.05875 1.0544,2.33896 6.35154,6.44786 6.35154,6.44786"
       id="path1"
       sodipodi:nodetypes="cscsccscscscssc" />
    <path
       style="fill:#999999;stroke:#000000;stroke-width:2.378;stroke-dasharray:none;paint-order:markers stroke fill"
       d="m 14.533854,276.83112 2.756009,-9.79913 13.167582,-9.49291 22.354266,3.9809 5.512007,7.34935 0.612451,9.49291 -6.430675,4.28712 H 26.170329 Z"
       id="path3" />
    <path
       style="fill:#5aa02c;stroke:#000000;stroke-width:1.1871;stroke-dasharray:none;paint-order:markers stroke fill"
       d="m 264.37721,280.82935 2.38144,-3.8522 c 0,0 2.37595,0.70919 3.49918,2.30341 1.12325,1.59422 0.91601,0.0572 0.91601,0.0572 0,0 -0.0619,-2.88837 -2.49696,-3.06833 -2.43503,-0.17995 2.00362,-1.68741 2.00362,-1.68741 0,0 2.03249,3.10481 2.44536,4.25818 0.41289,1.15336 0.53681,-0.22877 0.53681,-0.22877 0,0 0.25981,-3.1866 -1.44335,-4.35934 -1.70313,-1.17274 0.56748,-2.9203 0.56748,-2.9203 0,0 3.54593,5.62942 3.38104,7.0609 -0.16488,1.43149 1.06246,0.28648 1.06246,0.28648 0,0 -1.1547,-7.19877 -2.92277,-7.33756 -1.62541,-0.12759 1.79626,-0.3228 1.79626,-0.3228 0,0 3.14333,5.52669 3.2673,6.81911 0.12396,1.29243 0.7868,-0.45533 0.7868,-0.45533 0,0 -1.10482,-3.61008 -2.48908,-5.75903 -1.60069,-2.48492 1.60362,-1.17748 1.60362,-1.17748 0,0 2.33256,3.46026 2.31104,4.8939 -0.0215,1.43363 0.53305,1.10637 0.53305,1.10637 0,0 0.92828,-5.45138 -0.92392,-7.11419 -1.81377,-1.62832 -0.63098,1.61001 -0.0229,0.35061 0,0 2.6906,4.2098 2.95365,5.79111 0.26303,1.58131 -1.05368,-5.22061 -1.05368,-5.22061 0,0 1.94531,1.91182 3.12002,2.18826 0.96543,0.2272 -1.66972,-2.98224 -1.66972,-2.98224 l -1.64258,-2.01803 -0.54658,-1.22603 -0.62141,-0.71538 -1.06966,-1.32406 c 0,0 -1.43999,-0.87833 -1.82397,-0.78665 -0.47356,0.11305 0.44,-0.31941 -1.74437,0.0563 0,0 2.88851,2.40236 2.97433,3.46989 0.0737,0.91811 -1.45335,-0.73671 -1.45335,-0.73671 0,0 1.05451,0.0268 -1.94108,-1.02199 -2.99557,-1.04875 -3.35049,-1.35505 -3.35049,-1.35505 l 2.28964,2.18532 0.81247,0.94531 -0.6632,1.1242 -2.61533,-2.56717 -1.77386,-1.09013 -2.77422,-0.31218 1.35104,1.32712 0.92861,0.0834 c 0,0 0.5797,0.67572 1.151,0.82769 0.57131,0.15197 1.63362,2.04299 1.63362,2.04299 l -0.18772,1.1411 -2.21526,-0.42115 c 0,0 -0.66257,-0.94749 -1.37078,-1.5317 -0.7082,-0.58422 -1.32481,-0.17955 -2.17639,-0.76593 -0.85156,-0.58636 -0.48125,-0.86611 -2.04835,-1.04428 l -1.62373,0.48948 -0.7502,0.83493 1.56693,0.4005 c 0,0 0.95298,0.0545 1.51997,0.49321 0.567,0.4387 2.63582,0.62942 2.63582,0.62942 l 2.06332,3.23683 -3.71674,-1.06399 c 0,0 0.14478,0.1988 -0.42217,-0.23991 -0.567,-0.43871 -0.66217,0.11068 -1.93953,-0.76888 -1.27735,-0.87955 -1.27287,-0.74585 -2.27642,-0.76092 -1.00355,-0.0151 -1.7662,-0.30029 -1.7662,-0.30029 l -0.72098,0.48235 c 0,0 -0.0846,0.4919 0.9147,0.79369 0.99925,0.30179 1.56208,0.58403 2.2746,0.88151 0.71252,0.29749 1.75861,0.37292 1.75861,0.37292 l 3.19627,2.88338 c 0,0 -1.7339,0.36395 -3.1033,-0.39103 -1.12306,-0.61915 -4.01099,-2.16235 -4.30848,-1.44984 -0.29747,0.71251 3.50032,2.461 3.91966,3.18428 0.4193,0.72328 -0.93982,1.88374 -0.93982,1.88374 0,0 -1.11338,1.21737 -1.69974,2.06895 -0.58637,0.85157 -0.46237,1.27711 -0.46237,1.27711 z"
       id="path6"
       sodipodi:nodetypes="ccscscscscscscscscscscscscccccscscscccccccccscccssscccscccsssccssccssscscc" />
    <path
       style="fill:#5aa02c;stroke:#000000;stroke-width:0.853093;stroke-dasharray:none;paint-order:markers stroke fill"
       d="m 257.4108,281.30779 0.55876,-4.17038 c 0,0 -1.31115,-0.23439 -2.44775,0.74061 -1.13661,0.97498 -0.41675,-0.27684 -0.41675,-0.27684 0,0 1.21216,-2.46906 2.33144,-1.7572 1.11929,0.71188 -0.16759,-2.16879 -0.16759,-2.16879 0,0 -2.14701,1.95405 -2.79767,2.80178 -0.65068,0.84771 -0.13657,-0.38846 -0.13657,-0.38846 0,0 1.19643,-2.84085 2.40901,-3.24582 1.21256,-0.40499 0.95503,-2.72073 0.95503,-2.72073 0,0 -3.83302,3.59253 -4.3498,4.88585 -0.51678,1.29332 -0.57373,-0.13125 -0.57373,-0.13125 0,0 3.45056,-5.79751 4.26661,-5.28763 0.7502,0.46873 -0.63869,-0.91803 -0.63869,-0.91803 0,0 -3.61799,3.64729 -4.20171,4.71782 -0.58374,1.07051 -0.1509,-0.67288 -0.1509,-0.67288 0,0 1.95612,-2.72015 3.43249,-4.08064 1.70718,-1.57318 -0.20517,-1.58656 -0.20517,-1.58656 0,0 -2.42174,2.15377 -3.00094,3.39789 -0.57923,1.24412 -0.68298,0.7644 -0.68298,0.7644 0,0 1.83904,-5.03217 3.31676,-5.80674 1.44706,-0.75852 -0.38996,1.61326 -0.1341,0.31052 0,0 -2.88311,2.67273 -3.6451,3.94289 -0.762,1.27016 2.59522,-4.1274 2.59522,-4.1274 0,0 -1.6199,0.95618 -2.2377,0.77631 -0.50774,-0.14783 1.94094,-1.97752 1.94094,-1.97752 l 1.53353,-1.15558 0.7379,-0.86278 0.56043,-0.39572 1.0027,-0.76106 c 0,0 0.97875,-0.24477 1.10598,-0.029 0.1569,0.26613 -0.0578,-0.43216 0.72578,0.6697 0,0 -2.22619,1.04341 -2.7012,1.93355 -0.40848,0.76561 0.92634,-0.11787 0.92634,-0.11787 0,0 -0.46372,-0.3524 1.25285,-0.19024 1.71655,0.16217 1.99464,0.0244 1.99464,0.0244 l -1.87998,1.06946 -0.73683,0.52599 -0.17671,1.20574 2.17655,-1.28283 1.20902,-0.30856 1.31918,0.71862 -1.12476,0.66351 -0.43292,-0.2587 c 0,0 -0.52625,0.37636 -0.8339,0.304 -0.30766,-0.0724 -1.53993,1.18031 -1.53993,1.18031 l -0.38778,1.051 1.12394,0.42559 c 0,0 0.67337,-0.58124 1.21722,-0.83293 0.54385,-0.25169 0.64247,0.31689 1.24876,0.1144 0.60628,-0.2025 0.56212,-0.57563 1.30805,-0.17127 l 0.4962,1.00034 -0.0206,0.98723 -0.83712,-0.21255 c 0,0 -0.43151,-0.29232 -0.85501,-0.11585 -0.42349,0.17646 -1.38998,-0.39572 -1.38998,-0.39572 l -2.21443,2.05693 2.03242,0.40582 c 0,0 -0.14375,0.11991 0.27973,-0.0566 0.4235,-0.17647 0.23885,0.33125 1.14829,0.0275 0.90942,-0.30375 0.85261,-0.19003 1.28965,0.15432 0.43703,0.34436 0.88153,0.36992 0.88153,0.36992 l 0.11155,0.67274 c 0,0 -0.16556,0.45439 -0.71848,0.35882 -0.55289,-0.0955 -0.91036,-0.0525 -1.33838,-0.0497 -0.428,0.003 -0.90808,-0.30457 -0.90808,-0.30457 l -2.55576,1.34866 c 0,0 0.59503,0.93131 1.49283,0.76779 0.7363,-0.1341 2.60959,-0.43671 2.44485,0.28375 -0.16474,0.72044 -2.51293,0.87612 -2.98984,1.3506 -0.47689,0.47449 -0.36971,1.95931 -0.36971,1.95931 0,0 -0.0217,1.4464 -0.11948,2.38964 -0.0978,0.94325 -0.32569,1.26611 -0.32569,1.26611 z"
       id="path6-0"
       sodipodi:nodetypes="ccscscscscscscscscscscscscccccscscscccccccccscccssscccscccsssccssccssscscc" />
    <path
       style="fill:#a05a2c;stroke:#000000;stroke-width:2.64583;stroke-dasharray:none;stroke-opacity:1;paint-order:markers stroke fill"
       d="m 340.79302,278.23985 17.05996,-15.4352 1.62478,-8.93617 11.3733,-12.99807 1.62476,-19.4971 -1.62476,-54.4294 -8.12379,-112.920688 -0.81238,-21.934241 4.87426,-32.49515944 77.17602,-4.87427996 -4.87426,67.4274704 3.24951,77.176008 4.06188,54.4294 -5.68663,34.11993 -8.1238,20.30947 4.87426,-9.74854 15.43521,5.68665 5.68667,14.62282 8.93617,9.74855 16.24758,11.37331 17.05997,14.62281 -24.37138,8.12379 -22.74663,2.43714 -8.12379,-11.3733 -21.12185,-4.0619 -17.05996,10.56093 -21.12185,8.93617 -4.87428,-28.43326 -19.4971,14.62281 -24.37138,8.12379 z"
       id="path4" />
    <path
       style="fill:#784421;stroke:none;stroke-width:2.64583;stroke-dasharray:none;stroke-opacity:1;paint-order:markers stroke fill"
       d="m 363.04532,283.55003 16.94592,-21.54145 5.7444,-18.09482 -2.01054,23.26477 -4.5955,15.79706 z"
       id="path9" />
    <path
       style="fill:#5aa02c;stroke:#000000;stroke-width:1.02697;stroke-dasharray:none;paint-order:markers stroke fill"
       d="m 252.64715,283.39761 -1.74169,-3.89882 c 0,0 -1.76634,0.70474 -2.60931,2.30849 -0.84296,1.60377 -0.67963,0.0535 -0.67963,0.0535 0,0 0.064,-2.91476 1.87095,-3.0851 1.80682,-0.17035 -1.47514,-1.71228 -1.47514,-1.71228 0,0 -1.52677,3.12407 -1.84017,4.28619 -0.31344,1.16212 -0.39663,-0.23336 -0.39663,-0.23336 0,0 -0.17257,-3.21724 1.09778,-4.39293 1.27034,-1.17569 -0.40241,-2.94991 -0.40241,-2.94991 0,0 -2.66489,5.66504 -2.55168,7.11049 0.11314,1.44547 -0.78967,0.2842 -0.78967,0.2842 0,0 0.90161,-7.25993 2.21359,-7.39182 1.20614,-0.12124 -1.32997,-0.3341 -1.32997,-0.3341 0,0 -2.36574,5.5632 -2.46582,6.86699 -0.1,1.30379 -0.58058,-0.46318 -0.58058,-0.46318 0,0 0.84202,-3.63831 1.88206,-5.80071 1.20262,-2.50048 -1.18174,-1.19578 -1.18174,-1.19578 0,0 -1.7515,3.48143 -1.74458,4.92841 0.007,1.44697 -0.40222,1.11413 -0.40222,1.11413 0,0 -0.654,-5.50604 0.72996,-7.17563 1.35526,-1.63497 0.45776,1.62781 0.0147,0.35396 0,0 -2.02167,4.23626 -2.22676,5.83093 -0.205,1.59471 0.81424,-5.26396 0.81424,-5.26396 0,0 -0.29976,1.44044 -1.17261,1.714 -0.71735,0.22482 0.10207,-2.52206 0.10207,-2.52206 l 1.23076,-2.02906 0.41304,-1.23483 0.46531,-0.71911 2.10495,-1.22356 c 0,0 0.99252,-1.15932 1.27668,-1.06503 0.35045,0.11629 0.34454,-0.57481 1.962,-0.18551 0,0 -4.0485,2.83337 -4.11886,3.91037 -0.0606,0.92624 2.00478,-1.39196 2.00478,-1.39196 0,0 -1.70455,0.67731 0.52343,-0.36728 2.22794,-1.04457 2.49306,-1.35205 2.49306,-1.35205 l -1.71162,2.1949 -0.60844,0.95029 0.4847,1.13766 1.95556,-2.57879 1.32226,-1.09199 2.05918,-0.30222 -1.01021,1.33313 -0.68914,0.0799 c 0,0 -0.43418,0.67926 -0.85873,0.83 -0.42462,0.15074 -1.22429,2.05431 -1.22429,2.05431 l 0.13203,1.15251 1.64537,-0.41478 c 0,0 0.21711,0.27175 0.746,-0.31457 0.52885,-0.58633 0.88191,-0.63747 1.51708,-1.22532 0.63516,-0.58784 0.74408,-1.63444 1.90729,-1.80699 l 1.20099,0.50151 0.55106,0.84612 -1.6031,-0.0108 c 0,0 -0.63115,-0.19228 -1.05435,0.24785 -0.42322,0.44012 -1.59581,1.27363 -1.59581,1.27363 l -1.55046,3.25718 c 0.92144,-0.35368 2.34904,-2.22323 2.76283,-1.05662 0,0 0.15831,-0.61489 0.58144,-1.05502 0.42322,-0.44013 0.22348,0.92961 1.17624,0.0479 0.95275,-0.88177 0.94859,-0.74685 1.69285,-0.75742 0.74428,-0.0106 1.31162,-0.29488 1.31162,-0.29488 l 0.5316,0.49014 c 0,0 0.0596,0.49683 -0.68331,0.79679 -0.74287,0.29995 -1.16202,0.58219 -1.69226,0.87912 -0.53024,0.29694 -1.30642,0.36823 -1.30642,0.36823 l -2.38836,2.89522 c 0,0 1.28347,0.37533 2.30369,-0.38028 0.83672,-0.61967 2.98796,-2.16377 3.20407,-1.44329 0.2161,0.72047 -2.61115,2.46754 -2.92666,3.19555 -0.31553,0.72801 0.68504,1.9055 0.68504,1.9055 0,0 0.81795,1.23377 1.24741,2.09593 0.42944,0.86215 0.33481,1.29105 0.33481,1.29105 z"
       id="path6-8"
       sodipodi:nodetypes="ccscscscscscscscscscscscscccccscscscccccccccscccssscccscccsssccssccssscscc" />
    <path
       style="fill:#554400;stroke:#000000;stroke-width:1.11327;stroke-dasharray:none;paint-order:markers stroke fill"
       d="m 0.13326016,288.86251 c 0,0 32.78373784,-4.95703 36.73749384,-4.95703 3.953756,0 141.544476,0.73168 141.544476,0.73168 h 144.70749 l 126.52019,-0.36584 183.45429,-0.54877 86.39498,4.14395 73.56659,-1.1145 0.18485,29.1475 -792.80097764,-0.58979 z"
       id="path7"
       sodipodi:nodetypes="csccccccccc" />
    <path
       style="fill:#b3b3b3;stroke:#000000;stroke-width:2.64583;stroke-dasharray:none;paint-order:markers stroke fill"
       d="m 616.44948,256.58956 20.11307,-5.1452 17.30659,4.91133 10.05654,7.01619 13.79852,-0.46774 8.88718,4.91132 -2.10487,12.39527 -22.4518,5.84683 -39.99229,-1.16937 -13.33076,-8.88716 2.57261,-14.96788 z"
       id="path8" />
    <path
       style="fill:#767c8c;fill-opacity:1;stroke:none;stroke-width:2.64583;stroke-dasharray:none;stroke-opacity:1;paint-order:markers stroke fill"
       d="m 609.91038,269.47628 12.78125,-4.4519 10.33991,-3.73385 7.89853,2.44136 c 0,0 8.90379,0.71805 9.90907,0.86166 1.00526,0.14361 9.47825,1.57971 10.19628,1.72332 0.71805,0.14361 10.1963,0.86166 10.1963,0.86166 l 1.72332,1.5797 1.29248,1.57971 h 4.73911 l 2.72859,0.71805 3.30303,1.72332 0.86165,0.43082 -1.14888,6.46244 -78.12368,2.44137 z"
       id="path13"
       sodipodi:nodetypes="ccccsscccccccccc" />
    <path
       style="fill:#697184;fill-opacity:1;stroke:none;stroke-width:2.64583;stroke-dasharray:none;stroke-opacity:1;paint-order:markers stroke fill"
       d="m 16.044487,271.23308 6.702128,-1.11702 -0.406189,-2.03095 8.631527,1.9294 10.459381,-3.14797 4.468085,1.01548 3.655708,1.52321 8.12379,0.20309 0.609285,0.30465 0.406189,4.46808 -0.710833,7.20987 -42.142165,-3.24952 -0.304643,-4.67118 z"
       id="path15" />
    <path
       style="fill:#5aa02c;stroke:#000000;stroke-width:2.06514;paint-order:markers stroke fill"
       d="m 114.68473,280.14637 c 0,0 2.18134,-8.98049 2.6837,-13.74998 0.58361,-5.5409 3.90293,-18.63289 3.90293,-18.63289 0,0 -5.05469,12.62255 -7.60136,16.96181 -2.54668,4.33926 -6.88284,20.62284 -6.88284,20.62284 l 2.37204,-25.15651 c 0,0 -2.02895,0.45399 -4.19808,12.06985 -0.90133,4.82673 -3.32037,9.61526 -3.32037,9.61526 0,0 -3.349111,-9.66042 -4.245491,-15.07236 -0.71907,-4.34139 -5.835089,-11.69753 -5.835089,-11.69753 0,0 4.501999,8.61016 2.48589,15.68649 -2.016123,7.07633 -3.23482,12.08476 -3.23482,12.08476 -1.337317,2.24359 -0.977317,-15.5068 1.756987,-19.35976 2.526836,-3.56062 -4.660643,5.87256 -5.562586,9.07693 -0.901944,3.20438 -0.414616,10.5504 -0.414616,10.5504"
       id="path1-6"
       sodipodi:nodetypes="cscsccscscscssc" />
    <path
       style="fill:#447821;stroke:#000000;stroke-width:2.53237;paint-order:markers stroke fill"
       d="m 221.88274,283.12465 -7.73081,-1.466 -4.47574,1.88485 -5.28951,-0.62828 -14.64787,-0.62829 -9.76524,1.04715 -12.61345,-2.51315 -18.30984,-1.25657 -6.51015,3.35086 -10.57902,1.46599 -10.57901,-1.88485 c 0,0 -8.13772,-2.51315 -9.76527,-2.51315 -1.62752,0 -14.647857,0.62829 -14.647857,0.62829 l -8.137704,1.25657 -8.951477,2.30372 -15.054754,-3.14143 -1.627543,-2.30372 c 0,0 -3.661967,-3.14143 -5.289508,-3.14143 H 44.887661 c 0,0 -2.034428,-0.62829 -5.289508,-0.83771 -3.255083,-0.20943 -19.123607,-0.62829 -20.75115,-0.20943 -1.62754,0.41885 -7.323933,1.25657 -7.730819,2.09429 -0.406885,0.83771 -1.2206562,2.932 -2.0344262,4.18857 -0.8137705,1.25657 -4.475738,4.398 -4.475738,4.398 l -2.0344263,0.83772 -2.44131154,0.41885 -0.81377047,4.398 4.88262301,0.83772 4.8826233,-1.88486 4.8826232,1.88486 12.613443,-3.14143 12.206558,1.67543 c 0,0 5.289508,-4.398 7.730821,-3.97915 2.441309,0.41886 10.985901,2.93201 10.985901,2.93201 l 11.799671,-2.51315 c 0,0 4.47574,3.97915 6.103279,4.18857 1.627541,0.20944 11.799674,-2.09428 11.799674,-2.09428 l 7.323934,1.25657 5.696398,-1.88486 c 0,0 1.22065,1.25658 4.47573,-0.20942 3.25509,-1.46601 3.66197,-1.67544 6.91704,-0.20943 3.25509,1.466 4.06886,1.25656 8.9515,1.88485 4.88261,0.62829 13.4272,-0.41885 13.4272,-0.41885 0,0 6.51016,1.466 8.95148,1.25657 2.44131,-0.20943 13.02033,-3.56029 15.46164,-3.14143 2.44131,0.41886 10.57901,3.35086 10.57901,3.35086 l 9.35836,-2.72257 c 0,0 6.51018,2.51314 8.95148,2.30371 2.44131,-0.20943 13.42722,-3.35086 17.49607,-2.30371 4.06885,1.04713 7.73081,1.67542 10.17213,1.88485 2.44131,0.20943 5.28951,-3.97914 9.35836,-2.932 4.06885,1.04715 7.73082,2.30372 7.73082,2.30372 0,0 4.06886,-1.04715 7.73081,-1.25657 3.66198,-0.20943 3.25509,-2.30372 5.69641,-1.67544 2.4413,0.62829 4.06884,2.72257 4.06884,2.72257 l 51.26753,2.93201 34.58526,0.41885 18.30985,-0.20942 21.56492,-0.83771 18.71672,-1.04715 4.88261,-3.76972 9.76525,5.44515 c 0,0 18.30984,-3.76972 19.93739,-3.35086 1.62753,0.41885 7.73081,2.93201 7.73081,2.93201 l 5.28951,-3.97916 13.8341,4.18858 16.68229,-3.97914 13.42722,4.18857 c 0,0 10.57902,-4.18857 12.61344,-3.56029 2.03443,0.62828 7.32394,2.93201 7.32394,2.93201 0,0 15.05475,-3.56029 17.08918,-1.88486 2.03443,1.67543 4.06885,2.93199 4.06885,2.93199 l 12.20656,-2.93199 61.03278,3.97914 3.66198,-0.41886 4.06885,-2.30371 4.47573,1.67542 11.79968,0.41887 15.86853,-1.466 4.88261,-1.04715 7.32395,3.97915 9.76525,-2.72257 8.95147,2.72257 10.9859,-2.932 6.10328,3.35085 7.73081,-2.72257 6.91706,1.25657 16.2754,-2.932 6.91706,3.35086 6.91705,-3.35086 10.17213,3.76972 19.53049,-3.97915 7.73082,3.35086 c 0,0 5.69639,-3.56029 7.73082,-2.932 2.03442,0.62829 7.73082,2.932 7.73082,2.932 l 6.51016,-3.14143 4.88263,-0.20943 -6.10329,-3.56029 -10.57901,-2.51314 -12.61344,-2.30371 -13.42722,4.398 -9.76524,-3.97915 c 0,0 -9.35836,4.81686 -11.39279,4.81686 -2.03443,0 -16.27541,-0.20943 -17.90294,-0.41886 -1.62755,-0.20943 -13.42723,-3.14142 -13.42723,-3.14142 0,0 -4.88262,-2.09429 -6.91704,-2.93201 -2.03443,-0.83771 -11.39279,-4.18857 -13.83411,-5.02629 -2.4413,-0.83771 -12.61344,-3.76971 -19.12359,-4.398 -6.51018,-0.62829 -9.35837,-1.466 -17.0892,-0.83772 -7.73081,0.62829 -19.53048,0.83772 -22.37868,1.67543 -2.8482,0.83772 -13.02033,2.72258 -14.24099,3.76972 -1.22064,1.04715 -0.40688,2.30372 -7.73082,3.76972 -7.32393,1.466 -18.30984,2.09429 -22.37868,1.67543 -4.06886,-0.41886 -13.8341,-2.51315 -13.8341,-2.51315 l -15.86853,2.30372 -1.62755,1.67543 -10.98589,-1.25657 -17.49607,-0.20943 -10.17214,2.72257 -10.579,-2.932 -13.42722,2.72257 -13.02033,-3.97914 -8.5446,4.60743 -11.79965,-2.932 -11.39279,3.14143 -17.08919,-0.20943 -17.49606,-0.20943 -6.10329,-1.466 c 0,0 -12.61343,0.41886 -17.49607,0.83772 -4.88261,0.41885 -22.78557,0.62828 -22.78557,0.62828 l -13.42722,-0.41886 -19.1236,-1.25657 -17.49607,1.04715 c 0,0 -16.68229,0.41885 -19.93737,0.20942 -3.25508,-0.20942 -24.82001,-2.30371 -24.82001,-2.30371 z"
       id="path2"
       sodipodi:nodetypes="cccccccccccscccccscsssscccccccccsccscccssscssccsssscssccccccccscccccscsccccccccccccccccccccccsccccccccsscsssssssscccccccccccccccsccccscc" />
    <path
       style="fill:#2ca02c;stroke:#000000;stroke-width:3.03477;stroke-dasharray:none;paint-order:markers stroke fill"
       d="m 20.868408,263.98497 9.361335,-6.09999 22.59947,2.83944 2.566673,2.78401 -0.05615,2.01061 -10.303689,-1.33179 -14.138702,4.34248 -9.061256,-2.10339 z"
       id="path5"
       sodipodi:nodetypes="ccccccccc" />
    <path
       style="fill:#784421;stroke:none;stroke-width:2.64583;stroke-dasharray:none;stroke-opacity:1;paint-order:markers stroke fill"
       d="m 400.38382,200.83085 -8.04214,-53.71003 4.88272,-28.72194 z"
       id="path10" />
    <path
       style="fill:#784421;stroke:none;stroke-width:2.64583;stroke-dasharray:none;stroke-opacity:1;paint-order:markers stroke fill"
       d="m 423.64861,282.97559 1.14886,-11.77599 -7.18047,-20.96702 -7.1805,-5.16995 7.18049,1.4361 6.03162,2.29776 4.88273,13.78653 8.90379,5.74438 -1e-5,14.64819 z"
       id="path11"
       sodipodi:nodetypes="cccccccccc" />
    <path
       style="fill:#000000;fill-opacity:1;stroke:none;stroke-width:2.47312;stroke-dasharray:none;stroke-opacity:1;paint-order:markers stroke fill"
       d="m -0.21650704,290.11455 13.07258904,-2.13238 8.762944,-0.87804 13.07259,1.25434 7.182741,-4.8919 11.779693,0.25086 10.917768,3.88844 7.901014,-0.7526 10.63045,1.75607 4.88427,-1.63064 c 0,0 8.87089,0.95231 9.48037,1.04099 0.60947,0.0887 12.697428,-1.50781 13.713218,-1.50781 1.0158,0 15.03374,0.70957 16.15111,1.15304 1.11737,0.44347 9.24371,0.70955 10.66582,0.70955 1.42212,0 10.46267,-1.77389 10.46267,-1.77389 l 22.12835,2.00876 11.06142,-1.25434 10.05583,1.88151 9.91219,-2.13238 9.91218,1.00347 9.76853,-1.37977 11.34873,0.62717 12.78528,-2.00693 11.34874,2.00693 c 0,0 18.1005,1.37977 19.24974,1.63064 1.14923,0.25087 16.95128,1.37977 19.96803,1.63064 3.01674,0.25086 12.21065,0.3763 12.21065,0.3763 0,0 84.61268,-1.00347 85.18729,-1.25434 0.57462,-0.25086 7.18276,-2.2578 7.18276,-2.2578 l 12.49797,1.75607 17.8132,-0.3763 6.0335,-0.25087 c 0,0 5.88986,-0.7526 6.39264,-0.87804 0.50279,-0.12543 8.47563,0.56445 8.47563,0.56445 0,0 6.46448,2.38324 6.8236,2.50868 0.35915,0.12543 13.8627,-3.13584 13.8627,-3.13584 l 8.69112,-0.68989 c 0,0 3.16041,3.88844 3.44771,3.95116 0.28732,0.0627 8.18833,-1.37977 8.18833,-1.37977 l 6.10247,-3.03821 11.37687,4.96692 12.18953,-2.83823 6.50105,0.35478 2.43793,3.19301 21.12848,-3.90257 19.50322,1.41912 25.59798,1.06433 14.22112,-3.90257 11.37688,4.25735 23.16008,-4.96692 19.90953,0.35478 19.09691,2.48347 8.53266,0.70956 c 0,0 14.22111,1.24172 15.03375,1.24172 0.81262,0 17.47164,-0.70956 17.47164,-0.70956 l 10.36108,0.1774 14.42427,-1.06434 13.20529,0.35478 14.42427,-1.41912 13.2053,0.70956 5.48529,0.53216 1.42211,2.12868 -6.50108,0.17739 -5.68843,2.83824 -8.73582,-3.19302 -7.31371,3.3704 -8.32951,-3.01562 -18.89374,3.19302 -10.36109,-3.01563 -6.70423,2.83823 -7.31372,-2.83823 -16.04953,2.48345 -6.9074,-1.24172 -7.92316,2.48346 -5.28213,-2.66085 -11.17372,2.48345 -11.37691,1.41912 -9.95476,-1.7739 c 0,0 -11.98635,-2.83823 -12.79898,-2.83823 -0.81263,0 -13.81479,4.96691 -13.81479,4.96691 l -14.22109,0.1774 -2.43793,-4.07997 -9.7516,3.37041 -51.80544,-1.41912 c 0,0 -16.65902,-2.12868 -19.50323,-0.70956 -2.8442,1.41912 -10.15792,2.83824 -10.15792,2.83824 l -14.62743,-2.48346 -18.69059,2.48346 -15.03374,-4.61214 -14.22109,3.90258 -24.78535,1.06433 c 0,0 -19.90954,1.06434 -24.37903,0.70956 -4.46949,-0.35477 -26.81694,-4.61213 -26.81694,-4.61213 0,0 -13.8148,1.7739 -18.28427,2.12868 -4.46951,0.35478 -17.47164,-0.70956 -23.1601,0.35478 -5.68841,1.06434 -15.84634,0.70955 -23.56637,1.06434 -7.72003,0.35477 -25.59799,-0.35479 -29.66118,-0.70956 -4.06315,-0.35478 -21.94112,-1.41912 -21.94112,-1.41912 0,0 -11.37687,-1.7739 -13.40846,-1.7739 -2.03159,0 -16.65901,-1.06434 -16.65901,-1.06434 l -8.12634,3.19302 -2.84422,-2.83824 -15.84637,0.35478 -15.84638,2.12868 -17.06532,2.83824 c 0,0 -4.06316,-4.25736 -5.68844,-4.25736 -1.62527,0 -25.19166,0.70956 -25.19166,0.70956 l -16.25269,0.70956 c 0,0 -15.44006,-3.90258 -21.12849,-2.83824 -5.688458,1.06434 -23.972728,5.32169 -23.972728,5.32169 L 57.24252,294.31704 c 0,0 -6.907393,1.7739 -9.751612,2.12868 -2.84422,0.35478 -24.785349,-4.25736 -24.785349,-4.25736 0,0 -14.62742,5.3217 -16.252689,5.67647 -1.625269,0.35479 -17.065322,0.70956 -17.065322,0.70956 z"
       id="path12-5" />
    <path
       style="fill:#2d5016;stroke:none;stroke-width:2.47312;stroke-dasharray:none;stroke-opacity:1;paint-order:markers stroke fill"
       d="m -0.12370804,288.71273 13.07258904,-2.13238 8.762944,-0.87804 13.07259,1.25434 7.182741,-4.8919 11.779693,0.25087 10.917768,3.88843 7.901017,-0.7526 10.630455,1.75607 4.884263,-1.63064 c 0,0 8.870893,0.95231 9.48037,1.04099 0.609476,0.0887 12.697418,-1.50781 13.713208,-1.50781 1.0158,0 15.03374,0.70957 16.15111,1.15304 1.11737,0.44347 9.24371,0.70955 10.66582,0.70955 1.42212,0 10.46267,-1.77389 10.46267,-1.77389 l 22.12835,2.00876 11.06142,-1.25434 10.05583,1.88151 9.91219,-2.13238 9.91218,1.00347 9.76853,-1.37977 11.34873,0.62717 12.78528,-2.00693 11.34874,2.00693 c 0,0 18.1005,1.37977 19.24974,1.63064 1.14923,0.25087 16.95128,1.37977 19.96803,1.63064 3.01674,0.25086 12.21065,0.3763 12.21065,0.3763 0,0 84.61268,-1.00347 85.18729,-1.25434 0.57462,-0.25086 7.18276,-2.2578 7.18276,-2.2578 l 12.49797,1.75607 17.8132,-0.3763 6.0335,-0.25087 c 0,0 5.88986,-0.7526 6.39264,-0.87804 0.50279,-0.12543 8.47563,0.56445 8.47563,0.56445 0,0 6.46448,2.38324 6.8236,2.50868 0.35915,0.12543 13.8627,-3.13584 13.8627,-3.13584 l 8.69112,-0.68989 c 0,0 3.16041,3.88844 3.44771,3.95116 0.28732,0.0627 8.18833,-1.37977 8.18833,-1.37977 l 6.10247,-3.03821 11.37687,4.96692 12.18953,-2.83823 6.50105,0.35478 2.43793,3.19301 21.12848,-3.90257 19.50322,1.41912 25.59798,1.06433 14.22112,-3.90257 11.37688,4.25735 23.16008,-4.96692 19.90953,0.35478 19.09691,2.48347 8.53266,0.70956 c 0,0 14.22111,1.24172 15.03375,1.24172 0.81262,0 17.47164,-0.70956 17.47164,-0.70956 l 10.36108,0.1774 14.42427,-1.06434 13.20529,0.35478 14.42427,-1.41912 13.2053,0.70956 5.48529,0.53216 1.42211,2.12868 -6.50108,0.17739 -5.68843,2.83824 -8.73582,-3.19302 -7.31371,3.3704 -8.32951,-3.01562 -18.89374,3.19302 -10.36109,-3.01563 -6.70423,2.83823 -7.31372,-2.83823 -16.04953,2.48345 -6.9074,-1.24172 -7.92316,2.48346 -5.28213,-2.66085 -11.17372,2.48345 -11.37691,1.41912 -9.95476,-1.7739 c 0,0 -11.98635,-2.83823 -12.79898,-2.83823 -0.81263,0 -13.81479,4.96691 -13.81479,4.96691 l -14.22109,0.1774 -2.43793,-4.07997 -9.7516,3.37041 -51.80544,-1.41912 c 0,0 -16.65902,-2.12868 -19.50323,-0.70956 -2.8442,1.41912 -10.15792,2.83824 -10.15792,2.83824 l -14.62743,-2.48346 -18.69059,2.48346 -15.03374,-4.61214 -14.22109,3.90258 -24.78535,1.06433 c 0,0 -19.90954,1.06434 -24.37903,0.70956 -4.46949,-0.35477 -26.81694,-4.61213 -26.81694,-4.61213 0,0 -13.8148,1.7739 -18.28427,2.12868 -4.46951,0.35478 -17.47164,-0.70956 -23.1601,0.35478 -5.68841,1.06434 -15.84634,0.70955 -23.56637,1.06434 -7.72003,0.35477 -25.59799,-0.35479 -29.66118,-0.70956 -4.06315,-0.35478 -21.94112,-1.41912 -21.94112,-1.41912 0,0 -11.37687,-1.7739 -13.40846,-1.7739 -2.03159,0 -16.65901,-1.06434 -16.65901,-1.06434 l -8.12634,3.19302 -2.84422,-2.83824 -15.84637,0.35478 -15.84638,2.12868 -17.06532,2.83824 c 0,0 -4.06316,-4.25736 -5.68844,-4.25736 -1.62527,0 -25.19166,0.70956 -25.19166,0.70956 l -16.25269,0.70956 c 0,0 -15.44006,-3.90258 -21.12849,-2.83824 -5.688447,1.06434 -23.972719,5.32169 -23.972719,5.32169 l -21.534812,-3.54779 c 0,0 -6.907393,1.7739 -9.751612,2.12868 -2.84422,0.35478 -24.785349,-4.25736 -24.785349,-4.25736 0,0 -14.62742,5.3217 -16.2526887,5.67647 -1.6252689,0.35479 -17.0653223,0.70956 -17.0653223,0.70956 z"
       id="path12" />
    <path
       style="fill:#338000;fill-opacity:1;stroke:none;stroke-width:2.68474;stroke-dasharray:none;stroke-opacity:1;paint-order:markers stroke fill"
       d="m 20.918762,263.84402 9.582789,0.20608 2.472978,-1.7517 h 5.255076 l 9.582788,-0.10304 7.00677,0.92737 0.927366,0.41216 0.206082,2.06082 -10.819277,-1.33953 -13.807456,4.32771 -9.788871,-1.85473 z"
       id="path14" />
  </g>
</svg>
