<?xml version="1.0" encoding="UTF-8" standalone="no"?>
<!-- Created with Inkscape (http://www.inkscape.org/) -->

<svg
   width="3000"
   height="500"
   viewBox="0 0 793.74998 132.29167"
   version="1.1"
   id="svg1"
   inkscape:export-filename="ground.svg"
   inkscape:export-xdpi="96"
   inkscape:export-ydpi="96"
   inkscape:version="1.4 (e7c3feb100, 2024-10-09)"
   sodipodi:docname="ground.svg"
   xmlns:inkscape="http://www.inkscape.org/namespaces/inkscape"
   xmlns:sodipodi="http://sodipodi.sourceforge.net/DTD/sodipodi-0.dtd"
   xmlns="http://www.w3.org/2000/svg"
   xmlns:svg="http://www.w3.org/2000/svg">
  <sodipodi:namedview
     id="namedview1"
     pagecolor="#ffffff"
     bordercolor="#000000"
     borderopacity="0.25"
     inkscape:showpageshadow="2"
     inkscape:pageopacity="0.0"
     inkscape:pagecheckerboard="true"
     inkscape:deskcolor="#d1d1d1"
     inkscape:document-units="mm"
     inkscape:zoom="0.32568948"
     inkscape:cx="311.64654"
     inkscape:cy="284.01285"
     inkscape:window-width="1239"
     inkscape:window-height="1078"
     inkscape:window-x="0"
     inkscape:window-y="0"
     inkscape:window-maximized="1"
     inkscape:current-layer="layer1">
    <inkscape:page
       x="0"
       y="0"
       width="793.75"
       height="132.29167"
       id="page2"
       margin="0"
       bleed="0" />
  </sodipodi:namedview>
  <defs
     id="defs1" />
  <g
     inkscape:label="Lager 1"
     inkscape:groupmode="layer"
     id="layer1">
    <path
       style="fill:#5aa02c;stroke:#000000;stroke-width:1.74835;paint-order:markers stroke fill"
       d="m 407.68421,99.246292 c 0,0 -1.25912,-7.50698 -2.03346,-11.054613 -0.89957,-4.121423 -5.70297,-10.799399 -5.70297,-10.799399 0,0 7.20093,6.933225 9.88297,9.996057 2.68204,3.062836 6.17994,17.130063 6.17994,17.130063 l -4.89117,-22.900039 c 0,0 7.92899,4.749085 7.30131,13.598624 -0.26573,3.746484 2.24268,6.284655 2.24268,6.284655 0,0 -2.71545,-14.385229 0.0921,-17.096563 2.8076,-2.711334 7.77005,-3.832667 7.77005,-3.832667 0,0 -4.0294,7.464554 -1.67792,12.627844 2.35148,5.163298 7.53566,7.916506 7.53566,7.916506 1.40621,1.582 -3.45543,-11.456094 -6.28455,-14.138375 -2.61448,-2.478761 6.46034,4.71979 7.51474,7.058753 1.0544,2.338959 6.35154,6.447852 6.35154,6.447852"
       id="path1"
       sodipodi:nodetypes="cscsccscscscssc" />
    <path
       style="fill:#999999;stroke:#000000;stroke-width:2.378;stroke-dasharray:none;paint-order:markers stroke fill"
       d="m 14.533854,93.233439 2.756009,-9.799132 13.167582,-9.492909 22.354266,3.980897 5.512007,7.349348 0.612451,9.492911 -6.430675,4.287118 H 26.170329 Z"
       id="path3" />
    <path
       style="fill:#5aa02c;stroke:#000000;stroke-width:1.1871;stroke-dasharray:none;paint-order:markers stroke fill"
       d="m 264.37721,97.231669 2.38144,-3.852207 c 0,0 2.37595,0.70919 3.49918,2.303412 1.12325,1.594219 0.91601,0.0572 0.91601,0.0572 0,0 -0.0619,-2.88837 -2.49696,-3.068324 -2.43503,-0.179955 2.00362,-1.687418 2.00362,-1.687418 0,0 2.03249,3.104812 2.44536,4.258179 0.41289,1.153368 0.53681,-0.228767 0.53681,-0.228767 0,0 0.25981,-3.186602 -1.44335,-4.35934 -1.70313,-1.172739 0.56748,-2.920298 0.56748,-2.920298 0,0 3.54593,5.629418 3.38104,7.060903 -0.16488,1.431486 1.06246,0.286474 1.06246,0.286474 0,0 -1.1547,-7.198765 -2.92277,-7.337557 -1.62541,-0.127594 1.79626,-0.322803 1.79626,-0.322803 0,0 3.14333,5.526688 3.2673,6.819117 0.12396,1.292425 0.7868,-0.455331 0.7868,-0.455331 0,0 -1.10482,-3.610081 -2.48908,-5.759032 -1.60069,-2.484926 1.60362,-1.177479 1.60362,-1.177479 0,0 2.33256,3.460258 2.31104,4.893894 -0.0215,1.433638 0.53305,1.106371 0.53305,1.106371 0,0 0.92828,-5.451382 -0.92392,-7.114186 -1.81377,-1.628324 -0.63098,1.610013 -0.0229,0.350609 0,0 2.6906,4.209804 2.95365,5.791111 0.26303,1.581309 -1.05368,-5.220615 -1.05368,-5.220615 0,0 1.94531,1.911826 3.12002,2.188265 0.96543,0.227196 -1.66972,-2.982244 -1.66972,-2.982244 l -1.64258,-2.018024 -0.54658,-1.22603 -0.62141,-0.715382 -1.06966,-1.324058 c 0,0 -1.43999,-0.878329 -1.82397,-0.786658 -0.47356,0.11305 0.44,-0.319405 -1.74437,0.05631 0,0 2.88851,2.402368 2.97433,3.469894 0.0737,0.91811 -1.45335,-0.736712 -1.45335,-0.736712 0,0 1.05451,0.02678 -1.94108,-1.02199 -2.99557,-1.048744 -3.35049,-1.355045 -3.35049,-1.355045 l 2.28964,2.185316 0.81247,0.945314 -0.6632,1.124201 -2.61533,-2.567172 -1.77386,-1.090135 -2.77422,-0.312176 1.35104,1.327115 0.92861,0.08344 c 0,0 0.5797,0.67572 1.151,0.827691 0.57131,0.151975 1.63362,2.042997 1.63362,2.042997 l -0.18772,1.141096 -2.21526,-0.421151 c 0,0 -0.66257,-0.947485 -1.37078,-1.531701 -0.7082,-0.584217 -1.32481,-0.179552 -2.17639,-0.765924 -0.85156,-0.586368 -0.48125,-0.866109 -2.04835,-1.044283 l -1.62373,0.489479 -0.7502,0.834931 1.56693,0.400495 c 0,0 0.95298,0.05452 1.51997,0.493216 0.567,0.438699 2.63582,0.629421 2.63582,0.629421 l 2.06332,3.236827 -3.71674,-1.063993 c 0,0 0.14478,0.198801 -0.42217,-0.239911 -0.567,-0.438702 -0.66217,0.110687 -1.93953,-0.768871 -1.27735,-0.879555 -1.27287,-0.745851 -2.27642,-0.760921 -1.00355,-0.01507 -1.7662,-0.300294 -1.7662,-0.300294 l -0.72098,0.482349 c 0,0 -0.0846,0.491899 0.9147,0.793694 0.99925,0.301792 1.56208,0.584023 2.2746,0.881509 0.71252,0.297491 1.75861,0.372923 1.75861,0.372923 l 3.19627,2.883375 c 0,0 -1.7339,0.36395 -3.1033,-0.391026 -1.12306,-0.619157 -4.01099,-2.162358 -4.30848,-1.449843 -0.29747,0.712514 3.50032,2.461004 3.91966,3.184278 0.4193,0.72328 -0.93982,1.883742 -0.93982,1.883742 0,0 -1.11338,1.217374 -1.69974,2.068948 -0.58637,0.851572 -0.46237,1.277114 -0.46237,1.277114 z"
       id="path6"
       sodipodi:nodetypes="ccscscscscscscscscscscscscccccscscscccccccccscccssscccscccsssccssccssscscc" />
    <path
       style="fill:#5aa02c;stroke:#000000;stroke-width:0.853093;stroke-dasharray:none;paint-order:markers stroke fill"
       d="m 257.4108,97.710108 0.55876,-4.170387 c 0,0 -1.31115,-0.234383 -2.44775,0.740611 -1.13661,0.974987 -0.41675,-0.276836 -0.41675,-0.276836 0,0 1.21216,-2.469064 2.33144,-1.757196 1.11929,0.711871 -0.16759,-2.168799 -0.16759,-2.168799 0,0 -2.14701,1.954056 -2.79767,2.801782 -0.65068,0.847716 -0.13657,-0.388455 -0.13657,-0.388455 0,0 1.19643,-2.840848 2.40901,-3.245825 1.21256,-0.404987 0.95503,-2.720725 0.95503,-2.720725 0,0 -3.83302,3.592528 -4.3498,4.885847 -0.51678,1.29332 -0.57373,-0.131252 -0.57373,-0.131252 0,0 3.45056,-5.797512 4.26661,-5.287632 0.7502,0.468738 -0.63869,-0.918025 -0.63869,-0.918025 0,0 -3.61799,3.647287 -4.20171,4.717818 -0.58374,1.070512 -0.1509,-0.672874 -0.1509,-0.672874 0,0 1.95612,-2.720158 3.43249,-4.080642 1.70718,-1.573182 -0.20517,-1.586558 -0.20517,-1.586558 0,0 -2.42174,2.153764 -3.00094,3.39789 -0.57923,1.244116 -0.68298,0.764394 -0.68298,0.764394 0,0 1.83904,-5.032172 3.31676,-5.806742 1.44706,-0.758518 -0.38996,1.61326 -0.1341,0.310525 0,0 -2.88311,2.67273 -3.6451,3.942884 -0.762,1.270161 2.59522,-4.127398 2.59522,-4.127398 0,0 -1.6199,0.956187 -2.2377,0.776311 -0.50774,-0.147824 1.94094,-1.977521 1.94094,-1.977521 l 1.53353,-1.155577 0.7379,-0.862777 0.56043,-0.395722 1.0027,-0.761064 c 0,0 0.97875,-0.244769 1.10598,-0.02898 0.1569,0.266129 -0.0578,-0.432154 0.72578,0.669703 0,0 -2.22619,1.043406 -2.7012,1.933552 -0.40848,0.765609 0.92634,-0.117877 0.92634,-0.117877 0,0 -0.46372,-0.352396 1.25285,-0.190239 1.71655,0.16217 1.99464,0.02437 1.99464,0.02437 l -1.87998,1.069459 -0.73683,0.52599 -0.17671,1.205742 2.17655,-1.282824 1.20902,-0.308561 1.31918,0.718613 -1.12476,0.66351 -0.43292,-0.258698 c 0,0 -0.52625,0.376363 -0.8339,0.304002 -0.30766,-0.07236 -1.53993,1.180306 -1.53993,1.180306 l -0.38778,1.051001 1.12394,0.425592 c 0,0 0.67337,-0.581241 1.21722,-0.832924 0.54385,-0.25169 0.64247,0.316882 1.24876,0.114394 0.60628,-0.202496 0.56212,-0.575626 1.30805,-0.171273 l 0.4962,1.000342 -0.0206,0.987232 -0.83712,-0.212549 c 0,0 -0.43151,-0.292316 -0.85501,-0.115854 -0.42349,0.176463 -1.38998,-0.395719 -1.38998,-0.395719 l -2.21443,2.056935 2.03242,0.405814 c 0,0 -0.14375,0.119912 0.27973,-0.05659 0.4235,-0.176467 0.23885,0.33125 1.14829,0.02751 0.90942,-0.303743 0.85261,-0.190023 1.28965,0.154327 0.43703,0.344354 0.88153,0.369919 0.88153,0.369919 l 0.11155,0.672742 c 0,0 -0.16556,0.454381 -0.71848,0.358819 -0.55289,-0.09553 -0.91036,-0.05253 -1.33838,-0.04967 -0.428,0.0028 -0.90808,-0.304577 -0.90808,-0.304577 l -2.55576,1.348665 c 0,0 0.59503,0.93131 1.49283,0.767792 0.7363,-0.1341 2.60959,-0.436713 2.44485,0.283742 -0.16474,0.720443 -2.51293,0.876122 -2.98984,1.3506 -0.47689,0.474495 -0.36971,1.959313 -0.36971,1.959313 0,0 -0.0217,1.446397 -0.11948,2.389643 -0.0978,0.943251 -0.32569,1.266111 -0.32569,1.266111 z"
       id="path6-0"
       sodipodi:nodetypes="ccscscscscscscscscscscscscccccscscscccccccccscccssscccscccsssccssccssscscc" />
    <path
       style="fill:#5aa02c;stroke:#000000;stroke-width:1.02697;stroke-dasharray:none;paint-order:markers stroke fill"
       d="m 252.64715,99.79993 -1.74169,-3.898821 c 0,0 -1.76634,0.704741 -2.60931,2.308491 -0.84296,1.603763 -0.67963,0.0535 -0.67963,0.0535 0,0 0.064,-2.914768 1.87095,-3.085107 1.80682,-0.170348 -1.47514,-1.712282 -1.47514,-1.712282 0,0 -1.52677,3.124075 -1.84017,4.286199 -0.31344,1.162114 -0.39663,-0.233364 -0.39663,-0.233364 0,0 -0.17257,-3.217242 1.09778,-4.39293 1.27034,-1.17569 -0.40241,-2.949906 -0.40241,-2.949906 0,0 -2.66489,5.665033 -2.55168,7.110484 0.11314,1.44547 -0.78967,0.284197 -0.78967,0.284197 0,0 0.90161,-7.259922 2.21359,-7.391811 1.20614,-0.121243 -1.32997,-0.3341 -1.32997,-0.3341 0,0 -2.36574,5.563193 -2.46582,6.866989 -0.1,1.303789 -0.58058,-0.463182 -0.58058,-0.463182 0,0 0.84202,-3.638315 1.88206,-5.80071 1.20262,-2.500485 -1.18174,-1.195784 -1.18174,-1.195784 0,0 -1.7515,3.481428 -1.74458,4.928408 0.007,1.446979 -0.40222,1.114138 -0.40222,1.114138 0,0 -0.654,-5.506041 0.72996,-7.175629 1.35526,-1.634972 0.45776,1.627806 0.0147,0.353952 0,0 -2.02167,4.236267 -2.22676,5.830937 -0.205,1.594702 0.81424,-5.263968 0.81424,-5.263968 0,0 -0.29976,1.440445 -1.17261,1.714003 -0.71735,0.224821 0.10207,-2.522055 0.10207,-2.522055 l 1.23076,-2.029065 0.41304,-1.234824 0.46531,-0.719114 2.10495,-1.223561 c 0,0 0.99252,-1.159318 1.27668,-1.065025 0.35045,0.116283 0.34454,-0.574819 1.962,-0.185511 0,0 -4.0485,2.833369 -4.11886,3.910362 -0.0606,0.926249 2.00478,-1.391958 2.00478,-1.391958 0,0 -1.70455,0.677316 0.52343,-0.367277 2.22794,-1.044567 2.49306,-1.352054 2.49306,-1.352054 l -1.71162,2.194907 -0.60844,0.950285 0.4847,1.137657 1.95556,-2.578783 1.32226,-1.091991 2.05918,-0.30222 -1.01021,1.333124 -0.68914,0.0799 c 0,0 -0.43418,0.679262 -0.85873,0.830009 -0.42462,0.150735 -1.22429,2.054307 -1.22429,2.054307 l 0.13203,1.152509 1.64537,-0.414785 c 0,0 0.21711,0.27175 0.746,-0.314562 0.52885,-0.586336 0.88191,-0.637477 1.51708,-1.225322 0.63516,-0.587843 0.74408,-1.634438 1.90729,-1.806993 l 1.20099,0.501511 0.55106,0.846119 -1.6031,-0.01082 c 0,0 -0.63115,-0.192274 -1.05435,0.247847 -0.42322,0.440129 -1.59581,1.273638 -1.59581,1.273638 l -1.55046,3.257172 c 0.92144,-0.35368 2.34904,-2.223227 2.76283,-1.056617 0,0 0.15831,-0.614885 0.58144,-1.055019 0.42322,-0.440131 0.22348,0.929614 1.17624,0.04785 0.95275,-0.881766 0.94859,-0.746849 1.69285,-0.757415 0.74428,-0.01057 1.31162,-0.294886 1.31162,-0.294886 l 0.5316,0.49014 c 0,0 0.0596,0.496833 -0.68331,0.796791 -0.74287,0.299954 -1.16202,0.582187 -1.69226,0.879121 -0.53024,0.296942 -1.30642,0.36823 -1.30642,0.36823 l -2.38836,2.895216 c 0,0 1.28347,0.375338 2.30369,-0.380276 0.83672,-0.619673 2.98796,-2.163766 3.20407,-1.44329 0.2161,0.720473 -2.61115,2.467537 -2.92666,3.195548 -0.31553,0.728008 0.68504,1.905497 0.68504,1.905497 0,0 0.81795,1.233775 1.24741,2.095934 0.42944,0.862151 0.33481,1.291051 0.33481,1.291051 z"
       id="path6-8"
       sodipodi:nodetypes="ccscscscscscscscscscscscscccccscscscccccccccscccssscccscccsssccssccssscscc" />
    <path
       style="fill:#554400;stroke:#000000;stroke-width:1.11327;stroke-dasharray:none;paint-order:markers stroke fill"
       d="m 0.13326017,105.26483 c 0,0 32.78373783,-4.95703 36.73749383,-4.95703 3.953756,0 141.544476,0.73168 141.544476,0.73168 h 144.70749 l 126.52019,-0.36584 183.45429,-0.54877 86.39498,4.14395 73.56659,-1.1145 0.18485,29.1475 -792.80097764,-0.58979 z"
       id="path7"
       sodipodi:nodetypes="csccccccccc" />
    <path
       style="fill:#b3b3b3;stroke:#000000;stroke-width:2.64583;stroke-dasharray:none;paint-order:markers stroke fill"
       d="m 616.44948,72.991879 20.11307,-5.145205 17.30659,4.911333 10.05654,7.016187 13.79852,-0.467741 8.88718,4.911327 -2.10487,12.395265 -22.4518,5.846835 -39.99229,-1.16937 -13.33076,-8.887168 2.57261,-14.967872 z"
       id="path8" />
    <path
       style="fill:#71c837;stroke:#000000;stroke-width:2.06514;paint-order:markers stroke fill"
       d="m 114.68473,96.54869 c 0,0 2.18134,-8.980496 2.6837,-13.749987 0.58361,-5.540901 3.90293,-18.632891 3.90293,-18.632891 0,0 -5.05469,12.622556 -7.60136,16.961813 -2.54668,4.339261 -6.88284,20.622845 -6.88284,20.622845 l 2.37204,-25.156519 c 0,0 -2.02895,0.453995 -4.19808,12.069856 -0.90133,4.826725 -3.32037,9.615261 -3.32037,9.615261 0,0 -3.349111,-9.660426 -4.245491,-15.072364 -0.71907,-4.341389 -5.835089,-11.697528 -5.835089,-11.697528 0,0 4.501999,8.610161 2.48589,15.686492 -2.016123,7.076327 -3.23482,12.084756 -3.23482,12.084756 -1.337317,2.243596 -0.977317,-15.506803 1.756987,-19.359763 2.526836,-3.560615 -4.660643,5.87256 -5.562586,9.076935 -0.901944,3.204377 -0.414616,10.550396 -0.414616,10.550396"
       id="path1-6"
       sodipodi:nodetypes="cscsccscscscssc" />
    <path
       style="fill:#447821;stroke:#000000;stroke-width:2.53237;paint-order:markers stroke fill"
       d="m 221.88274,99.526962 -7.73081,-1.466001 -4.47574,1.884859 -5.28951,-0.628286 -14.64787,-0.628288 -9.76524,1.047145 -12.61345,-2.513145 -18.30984,-1.256573 -6.51015,3.350861 -10.57902,1.465996 -10.57901,-1.884854 c 0,0 -8.13772,-2.513146 -9.76527,-2.513146 -1.62752,0 -14.647857,0.628288 -14.647857,0.628288 l -8.137704,1.256571 -8.951477,2.303721 -15.054754,-3.141435 -1.627543,-2.303716 c 0,0 -3.661967,-3.141431 -5.289508,-3.141431 H 44.887661 c 0,0 -2.034428,-0.628288 -5.289508,-0.837716 -3.255083,-0.209429 -19.123607,-0.628287 -20.75115,-0.209429 -1.62754,0.418857 -7.323933,1.256572 -7.730819,2.094288 -0.406885,0.837715 -1.2206565,2.932002 -2.0344263,4.188575 -0.8137704,1.256573 -4.4757379,4.398004 -4.4757379,4.398004 l -2.0344263,0.83772 -2.44131151,0.41885 -0.8137705,4.398 4.88262301,0.83772 4.8826232,-1.88486 4.8826233,1.88486 12.613443,-3.14143 12.206558,1.67543 c 0,0 5.289508,-4.398 7.730821,-3.97915 2.441309,0.41886 10.985901,2.93201 10.985901,2.93201 l 11.799671,-2.51315 c 0,0 4.47574,3.97915 6.103279,4.18857 1.627541,0.20944 11.799674,-2.09428 11.799674,-2.09428 l 7.323934,1.25657 5.696398,-1.88486 c 0,0 1.22065,1.25658 4.47573,-0.20942 3.25509,-1.46601 3.66197,-1.67544 6.91704,-0.20943 3.25509,1.466 4.06886,1.25656 8.9515,1.88485 4.88261,0.62829 13.4272,-0.41885 13.4272,-0.41885 0,0 6.51016,1.466 8.95148,1.25657 2.44131,-0.20943 13.02033,-3.56029 15.46164,-3.14143 2.44131,0.41886 10.57901,3.35086 10.57901,3.35086 l 9.35836,-2.72257 c 0,0 6.51018,2.51314 8.95148,2.30371 2.44131,-0.20943 13.42722,-3.35086 17.49607,-2.30371 4.06885,1.04713 7.73081,1.67542 10.17213,1.88485 2.44131,0.20943 5.28951,-3.97914 9.35836,-2.932 4.06885,1.04715 7.73082,2.30372 7.73082,2.30372 0,0 4.06886,-1.04715 7.73081,-1.25657 3.66198,-0.20943 3.25509,-2.30372 5.69641,-1.67544 2.4413,0.62829 4.06884,2.72257 4.06884,2.72257 l 51.26753,2.93201 34.58526,0.41885 18.30985,-0.20942 21.56492,-0.83771 18.71672,-1.04715 4.88261,-3.76972 9.76525,5.44515 c 0,0 18.30984,-3.76972 19.93739,-3.35086 1.62753,0.41885 7.73081,2.93201 7.73081,2.93201 l 5.28951,-3.97916 13.8341,4.18858 16.68229,-3.97914 13.42722,4.18857 c 0,0 10.57902,-4.18857 12.61344,-3.56029 2.03443,0.62828 7.32394,2.93201 7.32394,2.93201 0,0 15.05475,-3.56029 17.08918,-1.88486 2.03443,1.67543 4.06885,2.93199 4.06885,2.93199 l 12.20656,-2.93199 61.03278,3.97914 3.66198,-0.41886 4.06885,-2.30371 4.47573,1.67542 11.79968,0.41887 15.86853,-1.466 4.88261,-1.04715 7.32395,3.97915 9.76525,-2.72257 8.95147,2.72257 10.9859,-2.932 6.10328,3.35085 7.73081,-2.72257 6.91706,1.25657 16.2754,-2.932 6.91706,3.35086 6.91705,-3.35086 10.17213,3.76972 19.53049,-3.97915 7.73082,3.35086 c 0,0 5.69639,-3.56029 7.73082,-2.932 2.03442,0.62829 7.73082,2.932 7.73082,2.932 l 6.51016,-3.14143 4.88263,-0.20943 -6.10329,-3.56029 -10.57901,-2.51314 -12.61344,-2.303719 -13.42722,4.398009 -9.76524,-3.979151 c 0,0 -9.35836,4.816861 -11.39279,4.816861 -2.03443,0 -16.27541,-0.20943 -17.90294,-0.41886 -1.62755,-0.20943 -13.42723,-3.141429 -13.42723,-3.141429 0,0 -4.88262,-2.094287 -6.91704,-2.932002 -2.03443,-0.837715 -11.39279,-4.188575 -13.83411,-5.02629 -2.4413,-0.837715 -12.61344,-3.769718 -19.12359,-4.398004 -6.51018,-0.628286 -9.35837,-1.466001 -17.0892,-0.837715 -7.73081,0.628286 -19.53048,0.837715 -22.37868,1.67543 -2.8482,0.837715 -13.02033,2.722574 -14.24099,3.769717 -1.22064,1.047144 -0.40688,2.303717 -7.73082,3.769718 -7.32393,1.466001 -18.30984,2.094288 -22.37868,1.67543 -4.06886,-0.418857 -13.8341,-2.513145 -13.8341,-2.513145 l -15.86853,2.303716 -1.62755,1.67543 -10.98589,-1.256572 -17.49607,-0.209429 -10.17214,2.722575 -10.579,-2.932004 -13.42722,2.722574 -13.02033,-3.979146 -8.5446,4.607436 -11.79965,-2.932006 -11.39279,3.141436 -17.08919,-0.20943 -17.49606,-0.20943 -6.10329,-1.466004 c 0,0 -12.61343,0.418858 -17.49607,0.837715 -4.88261,0.418859 -22.78557,0.628289 -22.78557,0.628289 l -13.42722,-0.41886 -19.1236,-1.256573 -17.49607,1.047144 c 0,0 -16.68229,0.418859 -19.93737,0.209429 -3.25508,-0.209429 -24.82001,-2.303716 -24.82001,-2.303716 z"
       id="path2"
       sodipodi:nodetypes="cccccccccccscccccscsssscccccccccsccscccssscssccsssscsscc" />
    <path
       style="fill:#2ca02c;stroke:#000000;stroke-width:3.03477;stroke-dasharray:none;paint-order:markers stroke fill"
       d="m 20.868408,80.387286 9.361335,-6.099991 22.59947,2.83944 2.566673,2.784012 -0.05615,2.010605 -10.303689,-1.331791 -14.138702,4.342486 -9.061256,-2.103396 z"
       id="path5"
       sodipodi:nodetypes="ccccccccc" />
  </g>
</svg>
