<?xml version="1.0" encoding="UTF-8" standalone="no"?>
<!-- Created with Inkscape (http://www.inkscape.org/) -->

<svg
   width="793.70081"
   height="1122.5197"
   viewBox="0 0 210 296.99998"
   version="1.1"
   id="svg1"
   sodipodi:docname="skogsrå.svg"
   inkscape:export-filename="skogsrå-still.svg"
   inkscape:export-xdpi="96"
   inkscape:export-ydpi="96"
   xmlns:inkscape="http://www.inkscape.org/namespaces/inkscape"
   xmlns:sodipodi="http://sodipodi.sourceforge.net/DTD/sodipodi-0.dtd"
   xmlns="http://www.w3.org/2000/svg"
   xmlns:svg="http://www.w3.org/2000/svg">
  <sodipodi:namedview
     id="namedview1"
     pagecolor="#ffffff"
     bordercolor="#000000"
     borderopacity="0.25"
     inkscape:showpageshadow="2"
     inkscape:pageopacity="0.0"
     inkscape:pagecheckerboard="true"
     inkscape:deskcolor="#d1d1d1"
     inkscape:document-units="px"
     inkscape:zoom="0.86969048"
     inkscape:cx="334.02688"
     inkscape:cy="509.95154"
     inkscape:window-width="1920"
     inkscape:window-height="1080"
     inkscape:window-x="0"
     inkscape:window-y="0"
     inkscape:window-maximized="1"
     inkscape:current-layer="layer1">
    <inkscape:page
       x="0"
       y="0"
       width="210"
       height="296.99997"
       id="page2"
       margin="0"
       bleed="0" />
  </sodipodi:namedview>
  <defs
     id="defs1" />
  <g
     inkscape:label="Lager 1"
     inkscape:groupmode="layer"
     id="layer1">
    <path
       style="fill:#ff7f2a;stroke:#000000;stroke-width:2.62673;stroke-dasharray:none;stroke-opacity:1;paint-order:markers stroke fill"
       d="M 45.584304,116.66757 35.04819,115.27675 c 0,0 -1.131808,-0.39351 -5.146636,0.0281 -4.014825,0.4219 -10.520066,-1.93055 -12.810431,-1.81795 -2.290367,0.11258 -4.020174,0.60181 -2.618779,1.5434 1.401392,0.94163 11.302071,4.47451 11.302071,4.47451 l 21.050831,3.50129 z"
       id="path8-7" />
    <path
       style="fill:#ff9955;stroke:#000000;stroke-width:2.62673;stroke-dasharray:none;stroke-opacity:1;paint-order:markers stroke fill"
       d="m 45.424759,115.37197 -10.627059,0.076 c 0,0 -1.175125,-0.23358 -5.09378,0.73821 -3.918654,0.97177 -10.685341,-0.46074 -12.93845,-0.0333 -2.253109,0.42751 -3.899226,1.15071 -2.381748,1.88998 1.51748,0.73932 11.809547,2.87256 11.809547,2.87256 l 21.33183,0.56362 z"
       id="path8-5-0" />
    <path
       style="fill:#ffb380;stroke:#000000;stroke-width:2.62673;stroke-dasharray:none;stroke-opacity:1;paint-order:markers stroke fill"
       d="m 46.939943,115.22187 -10.576214,1.0457 c 0,0 -1.191397,-0.12534 -5.005922,1.20007 -3.814521,1.32542 -10.682822,0.51644 -12.887931,1.14783 -2.20511,0.63136 -3.778986,1.50182 -2.2009,2.09955 1.578089,0.59772 12.020579,1.78277 12.020579,1.78277 l 21.294576,-1.38573 z"
       id="path8-5-2-9"
       inkscape:transform-center-x="6.4037314"
       inkscape:transform-center-y="-0.25747199" />
    <path
       style="opacity:1;fill:#ffccaa;stroke:#000000;stroke-width:3.52372;stroke-dasharray:none;stroke-opacity:1;paint-order:markers stroke fill"
       d="m 70.95626,89.877918 1.916276,8.617336 c 0,0 -2.771905,3.860006 6.281999,1.202224 9.053906,-2.657778 13.090543,-5.2739 13.090543,-5.2739 L 84.462539,81.353871 Z"
       id="path3" />
    <ellipse
       style="opacity:1;fill:#ffe6d5;stroke:#000000;stroke-width:3.70925;stroke-opacity:1;paint-order:markers stroke fill"
       id="path1"
       transform="rotate(37.184467)"
       ry="21.99725"
       rx="21.997389"
       cy="15.442938"
       cx="94.207764" />
    <path
       style="opacity:1;fill:#e6e6e6;stroke:#000000;stroke-width:3.52372;stroke-dasharray:none;stroke-opacity:1;paint-order:markers stroke fill"
       d="m 69.972211,100.39491 c 0,0 -2.433815,7.30145 -5.476087,11.2564 -3.042269,3.95495 -25.25084,1.21691 -25.25084,1.21691 l -1.521135,16.42825 c 0,0 14.907122,14.6029 27.38043,10.64795 12.473307,-3.95495 20.687437,-13.99444 20.687437,-17.03671 0,-3.04227 -1.825363,-21.29589 -1.825363,-21.29589 z"
       id="path7" />
    <path
       style="opacity:1;fill:#f9f9f9;stroke:#000000;stroke-width:3.52372;stroke-dasharray:none;stroke-opacity:1;paint-order:markers stroke fill"
       d="m 71.201315,97.666484 c 0,0 -1.451766,4.368896 -1.676314,8.997296 -0.22455,4.62841 -5.72766,39.5626 -4.444897,58.46199 1.282759,18.89938 -5.248079,55.40861 6.325296,51.83714 5.645259,-1.74209 8.261693,5.17807 10.728657,4.01542 4.411722,-2.0792 7.151101,1.76667 13.364531,-2.65117 6.213422,-4.41783 6.668842,-1.01627 14.150322,-2.91785 6.43966,-1.63678 2.38515,3.14498 6.74227,0.0782 4.72684,-3.32701 13.87008,-0.30587 7.19642,-9.29232 -7.30877,-9.84167 -14.3763,-33.45123 -18.87735,-47.21792 C 100.09699,144.86738 93.642124,96.755508 93.642124,96.755508 Z"
       id="path4"
       sodipodi:nodetypes="cssssssssscc" />
    <path
       style="opacity:1;fill:#ffb380;stroke:#000000;stroke-width:2.62673;stroke-dasharray:none;stroke-opacity:1;paint-order:markers stroke fill"
       d="m 43.594466,122.80284 -10.527808,-1.45236 c 0,0 -1.129489,-0.40011 -5.146712,-0.002 -4.017222,0.39844 -10.508607,-1.99198 -12.799591,-1.89277 -2.290985,0.0992 -4.023621,0.57832 -2.627752,1.52808 1.395867,0.9498 11.275735,4.54047 11.275735,4.54047 l 21.030014,3.62422 z"
       id="path8" />
    <path
       style="fill:#ffccaa;stroke:#000000;stroke-width:2.62673;stroke-dasharray:none;stroke-opacity:1;paint-order:markers stroke fill"
       d="m 43.442494,121.50633 -10.627322,0.0139 c 0,0 -1.17374,-0.24044 -5.098006,0.70843 -3.924265,0.94886 -10.682467,-0.52316 -12.938035,-0.10885 -2.255569,0.41433 -3.905883,1.1279 -2.392751,1.87603 1.513135,0.74817 11.792562,2.94151 11.792562,2.94151 l 21.328173,0.68825 z"
       id="path8-5" />
    <path
       style="fill:#ffe6d5;stroke:#000000;stroke-width:2.62673;stroke-dasharray:none;stroke-opacity:1;paint-order:markers stroke fill"
       d="m 44.958529,121.36509 -10.582144,0.98388 c 0,0 -1.190644,-0.1323 -5.012848,1.1708 -3.8222,1.30311 -10.685657,0.45402 -12.894417,1.07251 -2.208762,0.61847 -3.787697,1.47972 -2.21313,2.08666 1.574569,0.60693 12.009957,1.85297 12.009957,1.85297 l 21.302309,-1.26129 z"
       id="path8-5-2"
       inkscape:transform-center-x="6.4124851"
       inkscape:transform-center-y="-0.26562107" />
    <path
       style="opacity:1;fill:#f9f9f9;stroke:#000000;stroke-width:3.52372;stroke-dasharray:none;stroke-opacity:1;paint-order:markers stroke fill"
       d="m 39.549509,120.16966 -0.608451,13.08177 c 0,0 24.078228,10.65696 33.769198,9.12681 11.560625,-1.82536 16.732483,-12.77754 18.557846,-19.77476 1.825361,-6.99722 3.95495,-17.03671 3.95495,-17.03671 0,0 -3.731004,-14.338886 -15.819803,-8.518355 -8.214129,3.954945 -6.388767,16.732475 -12.169082,20.687425 -5.780312,3.95495 -27.684658,2.43382 -27.684658,2.43382 z"
       id="path6"
       sodipodi:nodetypes="ccsscssc" />
    <path
       style="opacity:1;fill:#ffe680;stroke:#000000;stroke-width:3.52372;stroke-dasharray:none;stroke-opacity:1;paint-order:markers stroke fill"
       d="m 52.674229,60.692245 c 0,0 -15.986971,3.372024 -12.08196,-6.884365 3.905012,-10.256393 18.947596,-22.356194 31.619124,-15.276319 13.450216,7.514947 18.471698,4.298188 23.022746,21.667079 4.551047,17.368888 -2.053784,28.987623 2.959126,39.491312 4.767845,9.990208 11.161005,22.343618 10.639595,22.344308 -0.60259,7.4e-4 -15.403568,3.16518 -22.665228,-2.76846 -5.471328,-4.47072 -3.899243,-9.6085 -7.960695,-23.049419 C 75.528553,87.352562 79.010117,82.622673 73.773374,70.361554 68.316199,57.584326 52.674229,60.692245 52.674229,60.692245 Z"
       id="path2"
       sodipodi:nodetypes="cssssssssc" />
    <circle
       style="opacity:1;fill:#f6ffd5;stroke:#eef42e;stroke-width:2.58031;stroke-dasharray:none;stroke-opacity:1;paint-order:markers stroke fill"
       id="path5"
       cx="22.595188"
       cy="98.758583"
       r="10.359081" />
  </g>
</svg>
